# xmcd CD database file
#
# Track frame offsets:
#	150
#	11725
#	25972
#	39205
#	51027
#	64295
#	77757
#	91167
#	105175
#	118767
#	131992
#	144585
#	158835
#	172602
#	186397
#	199517
#	212262
#	224500
#	237332
#	249112
#	261620
#
# Disc length: 3661 seconds
#
# Revision: 0
# Processed by: cddbd v1.5.2PL0 Copyright (c) Steve Scherf et al.
# Submitted via: CDex 1.40Release
#
DISCID=1f0e4b15
DTITLE=Cousin Joe - The Complete 1945-1947 Vol. I
DYEAR=1945
DGENRE=Blues
TTITLE0=Broken Man Blues
TTITLE1=New Jailhouse Blues
TTITLE2=Levee Blues
TTITLE3=Layin' My Rules in Blues
TTITLE4=Bad, Bad Baby Blues
TTITLE5=Bad, Bad Baby Blues (Kicking like a kangaroo Blues)
TTITLE6=Saw Mill Man Blues
TTITLE7=Post War Future Blues
TTITLE8=Larceny Hearted Woman
TTITLE9=Just Another Woman
TTITLE10=My Love Comes Tumblin' Down
TTITLE11=Wedding Day Blues
TTITLE12=Desperate G.I. Blues
TTITLE13=You Got It Comin' to You
TTITLE14=Boogie Woogie Hannah
TTITLE15=You Ain't So Much-A-Much
TTITLE16=Fly Hen Blues
TTITLE17=Lonesome Man Blues
TTITLE18=Little Eva
TTITLE19=Baby, You Son't Know It All
TTITLE20=The Barefoot Boy
EXTD=YEAR: 1945 ID3G: 0
EXTT0=
EXTT1=
EXTT2=
EXTT3=
EXTT4=
EXTT5=
EXTT6=
EXTT7=
EXTT8=
EXTT9=
EXTT10=
EXTT11=
EXTT12=
EXTT13=
EXTT14=
EXTT15=
EXTT16=
EXTT17=
EXTT18=
EXTT19=
EXTT20=
PLAYORDER=
